<svg width="21" height="21" viewBox="0 0 21 21" fill="none" xmlns="http://www.w3.org/2000/svg">
<path d="M8.37895 4.33544C9.31412 2.00407 9.7817 0.838379 10.5858 0.838379C11.3898 0.838379 11.8574 2.00407 12.7926 4.33545L12.8361 4.44401C13.3645 5.76112 13.6286 6.41968 14.167 6.81996C14.7054 7.22024 15.4121 7.28353 16.8256 7.41012L17.0811 7.433C19.3944 7.64018 20.5511 7.74377 20.7986 8.47966C21.0461 9.21555 20.1871 9.99705 18.4692 11.56L17.8958 12.0817C17.0261 12.8729 16.5913 13.2685 16.3886 13.787C16.3508 13.8837 16.3194 13.9828 16.2945 14.0837C16.1613 14.6242 16.2886 15.1981 16.5433 16.3459L16.6226 16.7032C17.0906 18.8127 17.3246 19.8674 16.916 20.3223C16.7633 20.4923 16.5649 20.6147 16.3445 20.6749C15.7545 20.8358 14.917 20.1534 13.242 18.7884C12.142 17.8922 11.5921 17.444 10.9607 17.3432C10.7123 17.3036 10.4592 17.3036 10.2109 17.3432C9.57945 17.444 9.0295 17.8922 7.92958 18.7884C6.25452 20.1534 5.41699 20.8358 4.82707 20.6749C4.60663 20.6147 4.4082 20.4923 4.25552 20.3223C3.84693 19.8674 4.08094 18.8127 4.54897 16.7032L4.62824 16.3459C4.8829 15.1981 5.01024 14.6242 4.87702 14.0837C4.85217 13.9828 4.82074 13.8837 4.78293 13.787C4.58026 13.2685 4.14543 12.8729 3.27576 12.0817L2.70239 11.56C0.984416 9.99705 0.12543 9.21555 0.372928 8.47966C0.620425 7.74377 1.77709 7.64018 4.09041 7.433L4.34594 7.41012C5.75941 7.28353 6.46615 7.22024 7.00453 6.81996C7.54291 6.41968 7.80707 5.76112 8.3354 4.44401L8.37895 4.33544Z" fill="white"/>
</svg>
